PathFileType	4	(X/Y/Z)	/Users/mathieubourgeois/Desktop/Analyse/Traitement/Sujet_05/Data/Transformed_Sujet_05_velo_80.trc
DataRate	CameraRate	NumFrames	NumMarkers	Units	OrigDataRate	OrigDataStartFrame	OrigNumFrames
120.000000	120.000000	6	36	mm	120.000000	1482	1976
Frame#	Time	RFHD			RANE			STRN			LANI			LKNE			T10			RHUM			RWRB			C7			LFWT			LTOE			RTOE			LWRA			LBWT			RBWT			RFWT			LKNI			RKNI			RKNE			LANE			RANI			LHEE			RHEE			LHUM			LRAD			RRAD			RWRA			LWRB			LFHD			LBHD			RBHD			RSHO			LSHO			CLAV			LCAR			RCAR			
		X1	Y1	Z1	X2	Y2	Z2	X3	Y3	Z3	X4	Y4	Z4	X5	Y5	Z5	X6	Y6	Z6	X7	Y7	Z7	X8	Y8	Z8	X9	Y9	Z9	X10	Y10	Z10	X11	Y11	Z11	X12	Y12	Z12	X13	Y13	Z13	X14	Y14	Z14	X15	Y15	Z15	X16	Y16	Z16	X17	Y17	Z17	X18	Y18	Z18	X19	Y19	Z19	X20	Y20	Z20	X21	Y21	Z21	X22	Y22	Z22	X23	Y23	Z23	X24	Y24	Z24	X25	Y25	Z25	X26	Y26	Z26	X27	Y27	Z27	X28	Y28	Z28	X29	Y29	Z29	X30	Y30	Z30	X31	Y31	Z31	X32	Y32	Z32	X33	Y33	Z33	X34	Y34	Z34	X35	Y35	Z35	X36	Y36	Z36	

1483	12.35	137.0947570800781	1396.689453125	110.3590698242187	-350.153076171875	303.9284362792969	189.9213562011718	-200.5590972900391	1148.522216796875	21.0534954071044	-139.8231048583984	562.2587890625	-58.69393157958989	-51.62913513183592	926.6021118164062	-155.1503143310547	-323.7279052734375	1353.747192382812	43.43109893798815	26.29182815551755	1036.692504882812	193.8490142822265	242.1785278320312	891.6648559570312	247.2053680419922	-102.762451171875	1418.990600585938	17.64587783813467	-371.9126281738281	1089.13818359375	-74.21743774414074	-5.843860626220692	446.8981018066406	-90.73336029052737	-219.8445739746094	152.2615051269531	154.1781158447265	272.2930297851562	933.7640991210938	-149.556640625	-535.8008422851562	1113.693481445312	-5.344412326812878	-519.9339599609375	1115.701904296875	131.2130889892577	-356.3080139160156	1066.242553710938	168.4471588134764	-40.48511886596679	901.194580078125	-50.67937850952155	-197.2816925048828	630.043212890625	106.9324188232421	-197.0318298339844	672.2011108398438	211.7536163330078	-170.5071105957031	570.4299926757812	-137.8375396728516	-314.4444885253906	299.3991088867188	110.9943008422851	-228.3874359130859	540.6025390625	-92.1570663452149	-412.2933959960938	304.611572265625	144.6600646972655	17.1564407348633	1045.733032226562	-149.8659057617188	64.70723724365237	1074.217041015625	-195.2096862792969	67.89679718017575	1070.616088867188	243.6634826660156	275.6780395507812	932.7155151367188	194.3355560302734	237.6731109619141	883.79345703125	-182.2176818847657	162.4456176757812	1384.73681640625	-34.23450088500983	32.29439926147462	1458.125122070312	-69.23301696777352	0.9348007440566944	1492.293823242188	58.78775787353506	-22.29092597961428	1330.155151367188	160.002471923828	-68.19083404541014	1333.727905273438	-135.3051757812501	-82.99763488769531	1277.183471679688	19.99415588378897	315.0571594238281	924.9758911132812	-226.6116333007813	320.0464172363281	929.0786743164062	283.7849426269531	
1484	12.35833333333333	136.1242065429688	1396.151489257812	111.2892761230468	-358.1328430175781	313.7853393554688	191.3948974609374	-201.5892791748047	1148.376708984375	20.98634910583487	-133.9307556152344	552.9199829101562	-58.62247848510747	-53.09114074707029	919.8693237304688	-155.7098388671876	-324.6060180664062	1353.578491210938	43.16739654541003	25.92796325683591	1036.387573242188	193.926773071289	241.9781036376953	891.66943359375	247.4082336425781	-103.5615234375	1418.762939453125	18.08221054077138	-371.8807983398438	1087.17578125	-75.0850067138673	3.245096683502208	440.0801696777344	-91.15742492675784	-230.6031799316407	158.4137420654297	154.2493133544922	272.1932678222656	933.905517578125	-149.3407287597657	-536.6514282226562	1112.718383789062	-5.992374897003308	-520.8923950195312	1115.473388671875	130.5061187744139	-357.1966552734375	1066.619018554688	168.1101531982421	-42.34891510009765	894.7819213867188	-48.75708007812506	-193.9236297607422	633.7872314453125	107.8839492797851	-192.3468475341797	675.8136596679688	212.6930999755859	-163.3685913085937	560.0219116210938	-137.9850769042969	-321.4662170410156	307.8928527832031	111.1232223510742	-221.8133087158203	529.2742919921875	-92.9865341186524	-419.0448303222656	315.6785278320312	145.0068359374999	17.00071334838869	1045.852783203125	-149.8871765136719	64.65583038330081	1074.462158203125	-195.0747528076172	67.40219116210935	1070.354614257812	243.8130950927734	275.4738159179688	932.7698974609375	194.5423278808593	237.5483703613282	883.9352416992188	-182.0204162597657	161.7564544677734	1384.179077148438	-33.25496292114264	31.82961654663087	1457.766845703125	-68.53151702880868	0.2324259132146763	1491.954711914062	59.46372222900381	-23.05764579772951	1329.822509765625	160.2480163574218	-68.55318450927733	1333.791381835938	-134.9529113769532	-83.68768310546875	1276.79345703125	20.18105506896964	314.9403381347656	925.1675415039062	-226.3863525390625	319.8133850097656	929.125732421875	283.9941711425781	
1485	12.36666666666667	135.0948028564453	1395.611694335938	112.4092712402343	-364.1080932617188	323.9281005859375	191.548370361328	-202.6354827880859	1148.215942382812	20.93875885009756	-127.5396270751953	542.7492065429688	-58.60935974121099	-54.75621032714842	912.3731689453125	-156.2975463867188	-325.5085144042969	1353.202270507812	42.88756942749011	25.48553848266599	1036.0703125	194.1002044677734	241.772720336914	891.6996459960938	247.5903015136718	-104.4076995849609	1418.556396484375	18.53913307189931	-372.0944519042969	1085.690063476562	-76.10575103759777	12.32771396636964	431.9958190917969	-91.39066314697268	-240.7356719970703	165.2931671142578	154.3813781738281	272.124267578125	934.0194702148438	-149.0912780761719	-537.4664916992188	1111.674560546875	-6.722441196441785	-521.8153076171875	1115.190307617188	129.7724761962889	-358.0075073242188	1066.99267578125	167.7071685791014	-43.11478042602538	886.2158203125	-52.90409469604499	-184.2807312011719	637.7619018554688	107.179328918457	-187.3097381591797	679.8632202148438	213.6918182373046	-156.6425628662109	548.9891357421875	-138.0229644775391	-327.703125	317.0950927734375	111.2153930664062	-214.130615234375	517.0912475585938	-93.03919982910162	-425.076904296875	327.3978576660156	145.2708740234374	16.85936737060549	1045.905639648438	-149.7992401123047	64.60923004150393	1074.658203125	-194.881088256836	66.89879608154294	1070.083129882812	244.0404663085937	275.2003784179688	932.8441162109375	194.7095489501953	237.4404907226563	884.0735473632812	-181.8462829589844	161.0638732910156	1383.591186523438	-32.07469558715827	31.33621978759766	1457.429321289062	-67.68312835693368	-0.5446349978447034	1491.6044921875	60.25588989257803	-23.96924209594729	1329.297973632812	160.6196289062499	-68.92284393310545	1333.777954101562	-134.5233459472657	-84.44116973876953	1276.434204101562	20.44531440734854	314.8359985351562	925.3876342773438	-226.1251220703125	319.6088256835937	929.1937255859375	284.1588745117188	
1486	12.375	134.0490875244141	1395.148681640625	113.6825942993163	-369.3143615722656	334.6710205078125	191.6744537353515	-203.6891174316406	1148.012939453125	20.90681838989248	-122.2135696411133	532.0890502929688	-58.32304000854497	-56.71615219116209	904.1045532226562	-156.8141326904297	-326.4422302246094	1353.105834960938	42.59375381469714	25.00284004211423	1035.731567382812	194.3479766845703	241.5615081787109	891.7337036132812	247.7445983886718	-105.290283203125	1418.329467773438	18.98692512512197	-372.2552490234375	1084.19970703125	-77.20843505859386	20.98458862304689	423.819091796875	-90.77838897705081	-250.6051788330078	172.6763305664062	154.5824584960937	272.0455932617188	934.0804443359375	-148.8532409667969	-538.20947265625	1110.597412109375	-7.45890855789198	-522.7266235351562	1114.779174804688	128.9879913330077	-358.7765502929688	1067.345825195312	167.2372436523436	-44.87538146972656	877.981201171875	-53.13373184204108	-179.6781768798828	642.27734375	108.1004104614257	-181.9762725830078	684.2764282226562	214.7169189453124	-150.2270050048828	537.5942993164062	-138.045639038086	-333.2100524902344	326.900634765625	111.2924270629882	-207.0861663818359	504.5762939453125	-92.69983673095709	-430.5536193847656	339.9374084472656	145.6039886474609	16.73153114318849	1045.915283203125	-149.6502532958985	64.54827880859378	1074.762329101562	-194.6524658203126	66.35974121093747	1069.760864257812	244.2620239257812	274.8944396972656	932.9404907226562	194.8918304443359	237.3408660888672	884.19970703125	-181.6667633056641	160.3828735351562	1383.101806640625	-30.7381496429444	30.84037590026856	1457.072143554688	-66.70782470703134	-1.38326823711396	1491.285522460938	61.12240219116202	-24.85465431213381	1328.817016601562	161.1198425292968	-69.32876586914061	1333.70751953125	-134.1683959960938	-85.11501312255859	1276.113403320312	20.67936515808097	314.6940612792969	925.5464477539062	-225.9166412353516	319.3890991210937	929.2528686523438	284.3011474609375	
1487	12.38333333333333	132.8856658935547	1394.753540039062	115.1030654907226	-373.8684997558594	346.0310363769531	191.7779693603515	-204.4810943603516	1147.86669921875	20.92383766174307	-112.8020324707031	520.122314453125	-59.53570556640629	-59.33006286621092	895.7178955078125	-157.3735656738282	-327.3496398925781	1352.6943359375	42.31935882568347	24.49105644226072	1035.345947265625	194.6681518554687	241.0595550537109	891.6242065429688	248.2266540527343	-106.1320343017578	1418.137084960938	19.50163650512685	-372.1265563964844	1082.173706054688	-77.82549285888683	28.7792263031006	414.4803161621094	-91.0305099487305	-258.0192260742188	181.0077209472656	154.6493530273437	271.9517517089844	934.1334838867188	-148.6676940917969	-538.8764038085938	1109.523559570312	-8.287179946899547	-523.562255859375	1114.376708984375	128.2149200439452	-359.4867248535156	1067.686401367188	166.6308135986327	-46.05633544921874	867.9483642578125	-54.49438476562506	-174.8882446289062	647.191162109375	109.0935287475585	-176.4710540771485	689.0101928710938	215.8551330566406	-144.4293365478515	525.57470703125	-138.0168762207032	-338.0170593261719	337.3091430664062	111.3451232910156	-200.4308319091797	491.6639099121094	-92.49256134033209	-434.8115539550781	352.2898559570312	144.9080505371093	16.63569068908693	1045.90283203125	-149.4894714355469	64.42646026611331	1074.838500976562	-194.3938751220704	65.77349090576169	1069.435424804688	244.5565185546874	274.6366577148438	933.0475463867188	195.0353088378906	237.2519226074219	884.2802124023438	-181.53955078125	159.7576141357422	1382.618896484375	-29.22340202331549	30.39119529724122	1456.748046875	-65.68149566650399	-2.25335621833802	1491.021850585938	62.02870178222647	-25.8523864746094	1328.34375	161.6645355224609	-69.85319519042967	1333.649658203125	-134.0437927246095	-85.93157196044922	1275.78076171875	21.04852676391593	314.6178283691406	925.6159057617188	-225.7659454345703	319.2006530761718	929.2864379882812	284.4198303222656	
1488	12.39166666666667	131.8568115234375	1394.61376953125	116.5604934692382	-377.6683349609375	357.8589782714844	191.7965087890624	-205.3443756103516	1147.674194335938	20.96029663085928	-108.9271240234375	508.3199157714844	-58.72727966308598	-61.68841171264646	885.7317504882812	-157.5109252929688	-328.2311401367188	1352.494995117188	42.01064682006823	24.05641937255857	1034.958740234375	194.999771118164	240.9675903320312	891.517822265625	248.1665954589843	-106.9703903198242	1417.977783203125	19.95212745666494	-371.9931640625	1080.829833984375	-78.80146026611339	35.73042297363283	404.3753662109375	-91.24175262451175	-266.0114440917969	190.0637359619141	154.8266448974609	271.9002380371094	934.145751953125	-148.5283508300782	-539.4654541015625	1108.489135742188	-9.142951965332164	-524.3799438476562	1113.926513671875	127.3220291137694	-360.1047058105469	1068.030883789062	165.9555664062499	-48.7958869934082	860.1998901367188	-52.44975280761724	-169.6902770996094	652.5090942382812	110.081802368164	-170.815673828125	694.1959228515625	216.9798126220703	-139.1477355957031	513.2106323242188	-138.1319580078126	-342.1083068847656	348.2712707519531	111.3404388427734	-194.4146118164062	478.1786804199219	-92.36824035644537	-438.5286254882812	365.9345397949219	145.4967193603515	16.54016113281252	1045.819213867188	-149.3354187011719	64.31488037109378	1074.78564453125	-194.178939819336	65.23012542724607	1069.105590820312	244.9224700927734	274.4134521484375	933.15185546875	195.1432342529297	237.2040252685547	884.3328247070312	-181.4786529541016	159.1738891601562	1382.186767578125	-27.52330398559577	30.07922363281251	1456.42822265625	-64.58070373535165	-3.110316038131721	1490.80078125	63.00769424438467	-26.81277465820315	1327.846801757812	162.397491455078	-70.08982086181639	1333.380737304688	-133.395980834961	-86.61785125732422	1275.523681640625	21.39660453796378	314.53564453125	925.7490234375	-225.6915435791016	319.0294799804687	929.3416137695312	284.4900512695312	
